<?xml version="1.0" encoding="UTF-8" standalone="no"?>
<!-- Created with Inkscape (http://www.inkscape.org/) -->

<svg
   xmlns:dc="http://purl.org/dc/elements/1.1/"
   xmlns:cc="http://creativecommons.org/ns#"
   xmlns:rdf="http://www.w3.org/1999/02/22-rdf-syntax-ns#"
   xmlns:svg="http://www.w3.org/2000/svg"
   xmlns="http://www.w3.org/2000/svg"
   xmlns:xlink="http://www.w3.org/1999/xlink"
   xmlns:sodipodi="http://sodipodi.sourceforge.net/DTD/sodipodi-0.dtd"
   xmlns:inkscape="http://www.inkscape.org/namespaces/inkscape"
   width="2520"
   height="1200.0004"
   id="svg2985"
   version="1.1"
   inkscape:version="0.48.5 r10040"
   sodipodi:docname="smoke_whisp.svg">
  <defs
     id="defs2987">
    <linearGradient
       inkscape:collect="always"
       id="linearGradient7540">
      <stop
         style="stop-color:#ffffff;stop-opacity:1"
         offset="0"
         id="stop7542" />
      <stop
         style="stop-color:#ffffff;stop-opacity:0"
         offset="1"
         id="stop7544" />
    </linearGradient>
    <linearGradient
       inkscape:collect="always"
       xlink:href="#linearGradient7540"
       id="linearGradient7876"
       gradientUnits="userSpaceOnUse"
       x1="-225"
       y1="12.362182"
       x2="-225"
       y2="-247.63782" />
    <linearGradient
       inkscape:collect="always"
       xlink:href="#linearGradient7540"
       id="linearGradient7932"
       gradientUnits="userSpaceOnUse"
       x1="-225"
       y1="12.362182"
       x2="-225"
       y2="-247.63782" />
    <linearGradient
       inkscape:collect="always"
       xlink:href="#linearGradient7540"
       id="linearGradient8268"
       gradientUnits="userSpaceOnUse"
       x1="-225"
       y1="12.362182"
       x2="-225"
       y2="-247.63782" />
    <linearGradient
       inkscape:collect="always"
       xlink:href="#linearGradient7540"
       id="linearGradient8270"
       gradientUnits="userSpaceOnUse"
       x1="-225"
       y1="12.362182"
       x2="-225"
       y2="-242.63782" />
    <linearGradient
       inkscape:collect="always"
       xlink:href="#linearGradient7540"
       id="linearGradient8272"
       gradientUnits="userSpaceOnUse"
       x1="-225"
       y1="12.362182"
       x2="-225"
       y2="-232.63782" />
    <linearGradient
       inkscape:collect="always"
       xlink:href="#linearGradient7540"
       id="linearGradient8274"
       gradientUnits="userSpaceOnUse"
       x1="-225"
       y1="12.362182"
       x2="-225"
       y2="-227.63782" />
    <linearGradient
       inkscape:collect="always"
       xlink:href="#linearGradient7540"
       id="linearGradient8276"
       gradientUnits="userSpaceOnUse"
       x1="-225"
       y1="12.362182"
       x2="-225"
       y2="-222.63782" />
    <linearGradient
       inkscape:collect="always"
       xlink:href="#linearGradient7540"
       id="linearGradient8278"
       gradientUnits="userSpaceOnUse"
       x1="-225"
       y1="12.362182"
       x2="-225"
       y2="-217.63782" />
    <linearGradient
       inkscape:collect="always"
       xlink:href="#linearGradient7540"
       id="linearGradient8280"
       gradientUnits="userSpaceOnUse"
       x1="-225"
       y1="12.362182"
       x2="-225"
       y2="-212.63782" />
    <linearGradient
       inkscape:collect="always"
       xlink:href="#linearGradient7540"
       id="linearGradient8282"
       gradientUnits="userSpaceOnUse"
       x1="-225"
       y1="12.362182"
       x2="-225"
       y2="-207.63782" />
    <linearGradient
       inkscape:collect="always"
       xlink:href="#linearGradient7540"
       id="linearGradient8284"
       gradientUnits="userSpaceOnUse"
       x1="-225"
       y1="12.362182"
       x2="-225"
       y2="-212.63782" />
    <linearGradient
       inkscape:collect="always"
       xlink:href="#linearGradient7540"
       id="linearGradient8286"
       gradientUnits="userSpaceOnUse"
       x1="-225"
       y1="12.362182"
       x2="-225"
       y2="-217.63782" />
    <linearGradient
       inkscape:collect="always"
       xlink:href="#linearGradient7540"
       id="linearGradient8288"
       gradientUnits="userSpaceOnUse"
       x1="-225"
       y1="12.362182"
       x2="-225"
       y2="-222.63782" />
    <linearGradient
       inkscape:collect="always"
       xlink:href="#linearGradient7540"
       id="linearGradient8290"
       gradientUnits="userSpaceOnUse"
       x1="-225"
       y1="12.362182"
       x2="-225"
       y2="-227.63782" />
    <linearGradient
       inkscape:collect="always"
       xlink:href="#linearGradient7540"
       id="linearGradient8292"
       gradientUnits="userSpaceOnUse"
       x1="-225"
       y1="12.362182"
       x2="-225"
       y2="-232.63782" />
    <linearGradient
       inkscape:collect="always"
       xlink:href="#linearGradient7540"
       id="linearGradient8432"
       gradientUnits="userSpaceOnUse"
       x1="-225"
       y1="12.362182"
       x2="-225"
       y2="-247.63782" />
    <linearGradient
       inkscape:collect="always"
       xlink:href="#linearGradient7540"
       id="linearGradient8434"
       gradientUnits="userSpaceOnUse"
       x1="-225"
       y1="12.362182"
       x2="-225"
       y2="-242.63782" />
    <linearGradient
       inkscape:collect="always"
       xlink:href="#linearGradient7540"
       id="linearGradient8436"
       gradientUnits="userSpaceOnUse"
       x1="-225"
       y1="12.362182"
       x2="-225"
       y2="-232.63782" />
    <linearGradient
       inkscape:collect="always"
       xlink:href="#linearGradient7540"
       id="linearGradient8438"
       gradientUnits="userSpaceOnUse"
       x1="-225"
       y1="12.362182"
       x2="-225"
       y2="-227.63782" />
    <linearGradient
       inkscape:collect="always"
       xlink:href="#linearGradient7540"
       id="linearGradient8440"
       gradientUnits="userSpaceOnUse"
       x1="-225"
       y1="12.362182"
       x2="-225"
       y2="-222.63782" />
    <linearGradient
       inkscape:collect="always"
       xlink:href="#linearGradient7540"
       id="linearGradient8442"
       gradientUnits="userSpaceOnUse"
       x1="-225"
       y1="12.362182"
       x2="-225"
       y2="-217.63782" />
    <linearGradient
       inkscape:collect="always"
       xlink:href="#linearGradient7540"
       id="linearGradient8444"
       gradientUnits="userSpaceOnUse"
       x1="-225"
       y1="12.362182"
       x2="-225"
       y2="-212.63782" />
    <linearGradient
       inkscape:collect="always"
       xlink:href="#linearGradient7540"
       id="linearGradient8446"
       gradientUnits="userSpaceOnUse"
       x1="-225"
       y1="12.362182"
       x2="-225"
       y2="-207.63782" />
    <linearGradient
       inkscape:collect="always"
       xlink:href="#linearGradient7540"
       id="linearGradient8448"
       gradientUnits="userSpaceOnUse"
       x1="-225"
       y1="12.362182"
       x2="-225"
       y2="-212.63782" />
    <linearGradient
       inkscape:collect="always"
       xlink:href="#linearGradient7540"
       id="linearGradient8450"
       gradientUnits="userSpaceOnUse"
       x1="-225"
       y1="12.362182"
       x2="-225"
       y2="-217.63782" />
    <linearGradient
       inkscape:collect="always"
       xlink:href="#linearGradient7540"
       id="linearGradient8452"
       gradientUnits="userSpaceOnUse"
       x1="-225"
       y1="12.362182"
       x2="-225"
       y2="-222.63782" />
    <linearGradient
       inkscape:collect="always"
       xlink:href="#linearGradient7540"
       id="linearGradient8454"
       gradientUnits="userSpaceOnUse"
       x1="-225"
       y1="12.362182"
       x2="-225"
       y2="-227.63782" />
    <linearGradient
       inkscape:collect="always"
       xlink:href="#linearGradient7540"
       id="linearGradient8456"
       gradientUnits="userSpaceOnUse"
       x1="-225"
       y1="12.362182"
       x2="-225"
       y2="-232.63782" />
    <linearGradient
       inkscape:collect="always"
       xlink:href="#linearGradient7540"
       id="linearGradient8460"
       gradientUnits="userSpaceOnUse"
       x1="-225"
       y1="12.362182"
       x2="-225"
       y2="-237.63782" />
  </defs>
  <sodipodi:namedview
     id="base"
     pagecolor="#ffffff"
     bordercolor="#666666"
     borderopacity="1.0"
     inkscape:pageopacity="0.0"
     inkscape:pageshadow="2"
     inkscape:zoom="0.20792626"
     inkscape:cx="1113.4903"
     inkscape:cy="-134.40332"
     inkscape:document-units="px"
     inkscape:current-layer="layer1"
     showgrid="true"
     inkscape:showpageshadow="false"
     inkscape:window-width="1920"
     inkscape:window-height="1018"
     inkscape:window-x="1912"
     inkscape:window-y="-8"
     inkscape:window-maximized="1"
     showguides="true"
     inkscape:guide-bbox="true"
     inkscape:snap-bbox="false"
     inkscape:snap-global="true"
     fit-margin-top="0"
     fit-margin-left="0"
     fit-margin-right="0"
     fit-margin-bottom="0">
    <inkscape:grid
       type="xygrid"
       id="grid3761"
       empspacing="10"
       visible="true"
       enabled="true"
       snapvisiblegridlinesonly="true"
       spacingx="10px"
       spacingy="10px"
       originx="10px"
       originy="110.00018px" />
  </sodipodi:namedview>
  <metadata
     id="metadata2990">
    <rdf:RDF>
      <cc:Work
         rdf:about="">
        <dc:format>image/svg+xml</dc:format>
        <dc:type
           rdf:resource="http://purl.org/dc/dcmitype/StillImage" />
        <dc:title></dc:title>
      </cc:Work>
    </rdf:RDF>
  </metadata>
  <g
     inkscape:label="Layer 1"
     inkscape:groupmode="layer"
     id="layer1"
     transform="translate(10,37.637998)">
    <g
       inkscape:export-ydpi="90"
       inkscape:export-xdpi="90"
       inkscape:export-filename="C:\Users\Robert\Desktop\ASSETS_2018\smoke_whisp\spritesheet\spritesheet_smoke_whisp.png"
       id="g8088"
       transform="matrix(2,0,0,2,530,457.63782)">
      <rect
         style="opacity:0;color:#000000;fill:#333333;fill-opacity:1;fill-rule:nonzero;stroke:none;stroke-width:8;marker:none;visibility:visible;display:inline;overflow:visible;enable-background:accumulate"
         id="rect8090"
         width="90"
         height="300"
         x="-270"
         y="-247.63791" />
      <path
         sodipodi:nodetypes="csscsscc"
         inkscape:connector-curvature="0"
         id="path8092"
         d="m -250,-247.63782 c 0.0128,40 -15,49.99991 -15,99.99991 0,50.000003 59.98718,54.999998 60,95.000001 0.0128,40 -19.98718,55.0000916 -20,105.000091 0,-49.9999994 40,-65.000092 40,-105.000091 0,-50.000001 -30,-44.999998 -30,-95.000001 0,-50 15,-49.99991 15,-99.99991 z"
         style="color:#000000;fill:url(#linearGradient8268);fill-opacity:1;stroke:none;stroke-width:8;marker:none;visibility:visible;display:inline;overflow:visible;enable-background:accumulate" />
    </g>
    <g
       transform="matrix(2,0,0,2,710,457.63782)"
       id="g8094"
       inkscape:export-filename="C:\Users\Robert\Desktop\ASSETS_2018\smoke_whisp\spritesheet\spritesheet_smoke_whisp.png"
       inkscape:export-xdpi="90"
       inkscape:export-ydpi="90">
      <rect
         y="-247.63791"
         x="-270"
         height="300"
         width="90"
         id="rect8096"
         style="opacity:0;color:#000000;fill:#333333;fill-opacity:1;fill-rule:nonzero;stroke:none;stroke-width:8;marker:none;visibility:visible;display:inline;overflow:visible;enable-background:accumulate" />
      <path
         style="color:#000000;fill:url(#linearGradient8270);fill-opacity:1;stroke:none;stroke-width:8;marker:none;visibility:visible;display:inline;overflow:visible;enable-background:accumulate"
         d="m -250,-247.63782 c 0.0128,40 -15,49.99991 -15,99.99991 0,50.000003 54.98718,54.999998 55,95.000001 0.0128,40 -14.98718,55.0000916 -15,105.000091 0,-49.9999994 35,-65.000092 35,-105.000091 0,-50.000001 -25,-44.999998 -25,-95.000001 0,-50 15,-49.99991 15,-99.99991 z"
         id="path8098"
         inkscape:connector-curvature="0"
         sodipodi:nodetypes="csscsscc" />
    </g>
    <g
       inkscape:export-ydpi="90"
       inkscape:export-xdpi="90"
       inkscape:export-filename="C:\Users\Robert\Desktop\ASSETS_2018\smoke_whisp\spritesheet\spritesheet_smoke_whisp.png"
       id="g8100"
       transform="matrix(2,0,0,2,890,457.63782)">
      <rect
         style="opacity:0;color:#000000;fill:#333333;fill-opacity:1;fill-rule:nonzero;stroke:none;stroke-width:8;marker:none;visibility:visible;display:inline;overflow:visible;enable-background:accumulate"
         id="rect8102"
         width="90"
         height="300"
         x="-270"
         y="-247.63791" />
      <path
         sodipodi:nodetypes="csscsscc"
         inkscape:connector-curvature="0"
         id="path8104"
         d="m -250,-247.63782 c 0.0128,40 -10,49.99991 -10,99.99991 0,50.000003 44.98718,54.999998 45,95.000001 0.0128,40 -9.98718,55.0000916 -10,105.000091 0,-49.9999994 30,-65.000092 30,-105.000091 0,-50.000001 -15,-44.999998 -15,-95.000001 0,-50 10,-49.99991 10,-99.99991 z"
         style="color:#000000;fill:url(#linearGradient8272);fill-opacity:1;stroke:none;stroke-width:8;marker:none;visibility:visible;display:inline;overflow:visible;enable-background:accumulate" />
    </g>
    <g
       transform="matrix(2,0,0,2,1070,457.63782)"
       id="g8106"
       inkscape:export-filename="C:\Users\Robert\Desktop\ASSETS_2018\smoke_whisp\spritesheet\spritesheet_smoke_whisp.png"
       inkscape:export-xdpi="90"
       inkscape:export-ydpi="90">
      <rect
         y="-247.63791"
         x="-270"
         height="300"
         width="90"
         id="rect8108"
         style="opacity:0;color:#000000;fill:#333333;fill-opacity:1;fill-rule:nonzero;stroke:none;stroke-width:8;marker:none;visibility:visible;display:inline;overflow:visible;enable-background:accumulate" />
      <path
         style="color:#000000;fill:url(#linearGradient8274);fill-opacity:1;stroke:none;stroke-width:8;marker:none;visibility:visible;display:inline;overflow:visible;enable-background:accumulate"
         d="m -250,-247.63782 c 0.0128,40 -10,49.99991 -10,99.99991 0,50.000003 39.98718,54.999998 40,95.000001 0.0128,40 -4.98718,55.0000916 -5,105.000091 0,-49.9999994 25,-65.000092 25,-105.000091 0,-50.000001 -10,-44.999998 -10,-95.000001 0,-50 10,-49.99991 10,-99.99991 z"
         id="path8110"
         inkscape:connector-curvature="0"
         sodipodi:nodetypes="csscsscc" />
    </g>
    <g
       inkscape:export-ydpi="90"
       inkscape:export-xdpi="90"
       inkscape:export-filename="C:\Users\Robert\Desktop\ASSETS_2018\smoke_whisp\spritesheet\spritesheet_smoke_whisp.png"
       id="g8112"
       transform="matrix(2,0,0,2,1250,457.63782)">
      <rect
         style="opacity:0;color:#000000;fill:#333333;fill-opacity:1;fill-rule:nonzero;stroke:none;stroke-width:8;marker:none;visibility:visible;display:inline;overflow:visible;enable-background:accumulate"
         id="rect8114"
         width="90"
         height="300"
         x="-270"
         y="-247.63791" />
      <path
         sodipodi:nodetypes="csscsscc"
         inkscape:connector-curvature="0"
         id="path8116"
         d="m -250,-247.63782 c 0.0128,40 -5,49.99991 -5,99.99991 0,50.000003 29.98718,54.999998 30,95.000001 0.0128,40 0.0128,55.0000916 0,105.000091 0,-49.9999994 20,-65.000092 20,-105.000091 0,-50.000001 0,-44.999998 0,-95.000001 0,-50 5,-49.99991 5,-99.99991 z"
         style="color:#000000;fill:url(#linearGradient8276);fill-opacity:1;stroke:none;stroke-width:8;marker:none;visibility:visible;display:inline;overflow:visible;enable-background:accumulate" />
    </g>
    <g
       transform="matrix(2,0,0,2,1430,457.63782)"
       id="g8118"
       inkscape:export-filename="C:\Users\Robert\Desktop\ASSETS_2018\smoke_whisp\spritesheet\spritesheet_smoke_whisp.png"
       inkscape:export-xdpi="90"
       inkscape:export-ydpi="90">
      <rect
         y="-247.63791"
         x="-270"
         height="300"
         width="90"
         id="rect8120"
         style="opacity:0;color:#000000;fill:#333333;fill-opacity:1;fill-rule:nonzero;stroke:none;stroke-width:8;marker:none;visibility:visible;display:inline;overflow:visible;enable-background:accumulate" />
      <path
         style="color:#000000;fill:url(#linearGradient8278);fill-opacity:1;stroke:none;stroke-width:8;marker:none;visibility:visible;display:inline;overflow:visible;enable-background:accumulate"
         d="m -250,-247.63782 c 0.0128,40 -5,49.99991 -5,99.99991 0,50.000003 24.98718,54.999998 25,95.000001 0.0128,40 5.0128,55.0000916 5,105.000091 0,-49.9999994 15,-65.000092 15,-105.000091 0,-50.000001 5,-44.999998 5,-95.000001 0,-50 5,-49.99991 5,-99.99991 z"
         id="path8122"
         inkscape:connector-curvature="0"
         sodipodi:nodetypes="csscsscc" />
    </g>
    <g
       inkscape:export-ydpi="90"
       inkscape:export-xdpi="90"
       inkscape:export-filename="C:\Users\Robert\Desktop\ASSETS_2018\smoke_whisp\spritesheet\spritesheet_smoke_whisp.png"
       id="g8124"
       transform="matrix(2,0,0,2,1610,457.63782)">
      <rect
         style="opacity:0;color:#000000;fill:#333333;fill-opacity:1;fill-rule:nonzero;stroke:none;stroke-width:8;marker:none;visibility:visible;display:inline;overflow:visible;enable-background:accumulate"
         id="rect8126"
         width="90"
         height="300"
         x="-270"
         y="-247.63791" />
      <path
         sodipodi:nodetypes="csscsscc"
         inkscape:connector-curvature="0"
         id="path8128"
         d="m -250,-247.63782 c 0.0128,40 0,49.99991 0,99.99991 0,50.000003 14.98718,54.999998 15,95.000001 0.0128,40 10.0128,55.0000916 10,105.000091 0,-49.9999994 10,-65.000092 10,-105.000091 0,-50.000001 15,-44.999998 15,-95.000001 0,-50 0,-49.99991 0,-99.99991 z"
         style="color:#000000;fill:url(#linearGradient8280);fill-opacity:1;stroke:none;stroke-width:8;marker:none;visibility:visible;display:inline;overflow:visible;enable-background:accumulate" />
    </g>
    <g
       transform="matrix(2,0,0,2,1790,457.63782)"
       id="g8130"
       inkscape:export-filename="C:\Users\Robert\Desktop\ASSETS_2018\smoke_whisp\spritesheet\spritesheet_smoke_whisp.png"
       inkscape:export-xdpi="90"
       inkscape:export-ydpi="90">
      <rect
         y="-247.63791"
         x="-270"
         height="300"
         width="90"
         id="rect8132"
         style="opacity:0;color:#000000;fill:#333333;fill-opacity:1;fill-rule:nonzero;stroke:none;stroke-width:8;marker:none;visibility:visible;display:inline;overflow:visible;enable-background:accumulate" />
      <path
         style="color:#000000;fill:url(#linearGradient8282);fill-opacity:1;stroke:none;stroke-width:8;marker:none;visibility:visible;display:inline;overflow:visible;enable-background:accumulate"
         d="m -250,-247.63782 c 0.0128,40 0,49.99991 0,99.99991 0,50.000003 9.98718,54.999998 10,95.000001 0.0128,40 15.0128,55.0000916 15,105.000091 0,-49.9999994 5,-65.000092 5,-105.000091 0,-50.000001 20,-44.999998 20,-95.000001 0,-50 0,-49.99991 0,-99.99991 z"
         id="path8134"
         inkscape:connector-curvature="0"
         sodipodi:nodetypes="csscsscc" />
    </g>
    <g
       inkscape:export-ydpi="90"
       inkscape:export-xdpi="90"
       inkscape:export-filename="C:\Users\Robert\Desktop\ASSETS_2018\smoke_whisp\spritesheet\spritesheet_smoke_whisp.png"
       id="g8136"
       transform="matrix(2,0,0,2,1970,457.63782)">
      <rect
         style="opacity:0;color:#000000;fill:#333333;fill-opacity:1;fill-rule:nonzero;stroke:none;stroke-width:8;marker:none;visibility:visible;display:inline;overflow:visible;enable-background:accumulate"
         id="rect8138"
         width="90"
         height="300"
         x="-270"
         y="-247.63791" />
      <path
         sodipodi:nodetypes="csscsscc"
         inkscape:connector-curvature="0"
         id="path8140"
         d="m -250,-247.63782 c 0.0128,40 5,49.99991 5,99.99991 0,50.000003 -0.0128,54.999998 0,95.000001 0.0128,40 20.0128,55.0000916 20,105.000091 0,-49.9999994 0,-65.000092 0,-105.000091 0,-50.000001 30,-44.999998 30,-95.000001 0,-50 -5,-49.99991 -5,-99.99991 z"
         style="color:#000000;fill:url(#linearGradient8284);fill-opacity:1;stroke:none;stroke-width:8;marker:none;visibility:visible;display:inline;overflow:visible;enable-background:accumulate" />
    </g>
    <g
       transform="matrix(2,0,0,2,2150,457.63782)"
       id="g8142"
       inkscape:export-filename="C:\Users\Robert\Desktop\ASSETS_2018\smoke_whisp\spritesheet\spritesheet_smoke_whisp.png"
       inkscape:export-xdpi="90"
       inkscape:export-ydpi="90">
      <rect
         y="-247.63791"
         x="-270"
         height="300"
         width="90"
         id="rect8144"
         style="opacity:0;color:#000000;fill:#333333;fill-opacity:1;fill-rule:nonzero;stroke:none;stroke-width:8;marker:none;visibility:visible;display:inline;overflow:visible;enable-background:accumulate" />
      <path
         style="color:#000000;fill:url(#linearGradient8286);fill-opacity:1;stroke:none;stroke-width:8;marker:none;visibility:visible;display:inline;overflow:visible;enable-background:accumulate"
         d="m -250,-247.63782 c 0.0128,40 5,49.99991 5,99.99991 0,50.000003 -5.0128,54.999998 -5,95.000001 0.0128,40 25.0128,55.0000916 25,105.000091 0,-49.9999994 -5,-65.000092 -5,-105.000091 0,-50.000001 35,-44.999998 35,-95.000001 0,-50 -5,-49.99991 -5,-99.99991 z"
         id="path8146"
         inkscape:connector-curvature="0"
         sodipodi:nodetypes="csscsscc" />
    </g>
    <g
       inkscape:export-ydpi="90"
       inkscape:export-xdpi="90"
       inkscape:export-filename="C:\Users\Robert\Desktop\ASSETS_2018\smoke_whisp\spritesheet\spritesheet_smoke_whisp.png"
       id="g8148"
       transform="matrix(2,0,0,2,2330,457.63782)">
      <rect
         style="opacity:0;color:#000000;fill:#333333;fill-opacity:1;fill-rule:nonzero;stroke:none;stroke-width:8;marker:none;visibility:visible;display:inline;overflow:visible;enable-background:accumulate"
         id="rect8150"
         width="90"
         height="300"
         x="-270"
         y="-247.63791" />
      <path
         sodipodi:nodetypes="csscsscc"
         inkscape:connector-curvature="0"
         id="path8152"
         d="m -250,-247.63782 c 0.0128,40 10,49.99991 10,99.99991 0,50.000003 -15.0128,54.999998 -15,95.000001 0.0128,40 30.0128,55.0000916 30,105.000091 0,-49.9999994 -10,-65.000092 -10,-105.000091 0,-50.000001 45,-44.999998 45,-95.000001 0,-50 -10,-49.99991 -10,-99.99991 z"
         style="color:#000000;fill:url(#linearGradient8288);fill-opacity:1;stroke:none;stroke-width:8;marker:none;visibility:visible;display:inline;overflow:visible;enable-background:accumulate" />
    </g>
    <g
       transform="matrix(2,0,0,2,2510,457.63782)"
       id="g8154"
       inkscape:export-filename="C:\Users\Robert\Desktop\ASSETS_2018\smoke_whisp\spritesheet\spritesheet_smoke_whisp.png"
       inkscape:export-xdpi="90"
       inkscape:export-ydpi="90">
      <rect
         y="-247.63791"
         x="-270"
         height="300"
         width="90"
         id="rect8156"
         style="opacity:0;color:#000000;fill:#333333;fill-opacity:1;fill-rule:nonzero;stroke:none;stroke-width:8;marker:none;visibility:visible;display:inline;overflow:visible;enable-background:accumulate" />
      <path
         style="color:#000000;fill:url(#linearGradient8290);fill-opacity:1;stroke:none;stroke-width:8;marker:none;visibility:visible;display:inline;overflow:visible;enable-background:accumulate"
         d="m -250,-247.63782 c 0.0128,40 10,49.99991 10,99.99991 0,50.000003 -20.0128,54.999998 -20,95.000001 0.0128,40 35.0128,55.0000916 35,105.000091 0,-49.9999994 -15,-65.000092 -15,-105.000091 0,-50.000001 50,-44.999998 50,-95.000001 0,-50 -10,-49.99991 -10,-99.99991 z"
         id="path8158"
         inkscape:connector-curvature="0"
         sodipodi:nodetypes="csscsscc" />
    </g>
    <g
       inkscape:export-ydpi="90"
       inkscape:export-xdpi="90"
       inkscape:export-filename="C:\Users\Robert\Desktop\ASSETS_2018\smoke_whisp\spritesheet\spritesheet_smoke_whisp.png"
       id="g8160"
       transform="matrix(2,0,0,2,2690,457.63782)">
      <rect
         style="opacity:0;color:#000000;fill:#333333;fill-opacity:1;fill-rule:nonzero;stroke:none;stroke-width:8;marker:none;visibility:visible;display:inline;overflow:visible;enable-background:accumulate"
         id="rect8162"
         width="90"
         height="300"
         x="-270"
         y="-247.63791" />
      <path
         sodipodi:nodetypes="csscsscc"
         inkscape:connector-curvature="0"
         id="path8164"
         d="m -250,-247.63782 c 0.0128,40 15,49.99991 15,99.99991 0,50.000003 -30.0128,54.999998 -30,95.000001 0.0128,40 40.0128,55.0000916 40,105.000091 0,-49.9999994 -20,-65.000092 -20,-105.000091 0,-50.000001 60,-44.999998 60,-95.000001 0,-50 -15,-49.99991 -15,-99.99991 z"
         style="color:#000000;fill:url(#linearGradient8292);fill-opacity:1;stroke:none;stroke-width:8;marker:none;visibility:visible;display:inline;overflow:visible;enable-background:accumulate" />
    </g>
    <g
       transform="matrix(2,0,0,2,2870,457.63782)"
       id="g8166"
       inkscape:export-filename="C:\Users\Robert\Desktop\ASSETS_2018\smoke_whisp\spritesheet\spritesheet_smoke_whisp.png"
       inkscape:export-xdpi="90"
       inkscape:export-ydpi="90">
      <rect
         y="-247.63791"
         x="-270"
         height="300"
         width="90"
         id="rect8168"
         style="opacity:0;color:#000000;fill:#333333;fill-opacity:1;fill-rule:nonzero;stroke:none;stroke-width:8;marker:none;visibility:visible;display:inline;overflow:visible;enable-background:accumulate" />
      <path
         style="color:#000000;fill:url(#linearGradient8460);fill-opacity:1;stroke:none;stroke-width:8;marker:none;visibility:visible;display:inline;overflow:visible;enable-background:accumulate"
         d="m -250,-247.63782 c 0.0128,40 20,49.99991 20,99.99991 0,50.000003 -40.0128,54.999998 -40,95.000001 0.0128,40 45.0128,55.0000916 45,105.000091 0,-49.9999994 -25,-65.000092 -25,-105.000091 0,-50.000001 70,-44.999998 70,-95.000001 0,-50 -20,-49.99991 -20,-99.99991 z"
         id="path8170"
         inkscape:connector-curvature="0"
         sodipodi:nodetypes="csscsscc" />
    </g>
    <g
       transform="matrix(2,0,0,2,2690,1057.638)"
       id="g8348"
       inkscape:export-filename="C:\Users\Robert\Desktop\ASSETS_2018\smoke_whisp\spritesheet\spritesheet_smoke_whisp.png"
       inkscape:export-xdpi="90"
       inkscape:export-ydpi="90">
      <rect
         y="-247.63791"
         x="-270"
         height="300"
         width="90"
         id="rect8350"
         style="opacity:0;color:#000000;fill:#333333;fill-opacity:1;fill-rule:nonzero;stroke:none;stroke-width:8;marker:none;visibility:visible;display:inline;overflow:visible;enable-background:accumulate" />
      <path
         style="color:#000000;fill:url(#linearGradient8432);fill-opacity:1;stroke:none;stroke-width:8;marker:none;visibility:visible;display:inline;overflow:visible;enable-background:accumulate"
         d="m -250,-247.63782 c 0.0128,40 -15,49.99991 -15,99.99991 0,50.000003 59.98718,54.999998 60,95.000001 0.0128,40 -19.98718,55.0000916 -20,105.000091 0,-49.9999994 40,-65.000092 40,-105.000091 0,-50.000001 -30,-44.999998 -30,-95.000001 0,-50 15,-49.99991 15,-99.99991 z"
         id="path8352"
         inkscape:connector-curvature="0"
         sodipodi:nodetypes="csscsscc" />
    </g>
    <g
       inkscape:export-ydpi="90"
       inkscape:export-xdpi="90"
       inkscape:export-filename="C:\Users\Robert\Desktop\ASSETS_2018\smoke_whisp\spritesheet\spritesheet_smoke_whisp.png"
       id="g8354"
       transform="matrix(2,0,0,2,2510,1057.638)">
      <rect
         style="opacity:0;color:#000000;fill:#333333;fill-opacity:1;fill-rule:nonzero;stroke:none;stroke-width:8;marker:none;visibility:visible;display:inline;overflow:visible;enable-background:accumulate"
         id="rect8356"
         width="90"
         height="300"
         x="-270"
         y="-247.63791" />
      <path
         sodipodi:nodetypes="csscsscc"
         inkscape:connector-curvature="0"
         id="path8358"
         d="m -250,-247.63782 c 0.0128,40 -15,49.99991 -15,99.99991 0,50.000003 54.98718,54.999998 55,95.000001 0.0128,40 -14.98718,55.0000916 -15,105.000091 0,-49.9999994 35,-65.000092 35,-105.000091 0,-50.000001 -25,-44.999998 -25,-95.000001 0,-50 15,-49.99991 15,-99.99991 z"
         style="color:#000000;fill:url(#linearGradient8434);fill-opacity:1;stroke:none;stroke-width:8;marker:none;visibility:visible;display:inline;overflow:visible;enable-background:accumulate" />
    </g>
    <g
       transform="matrix(2,0,0,2,2330,1057.638)"
       id="g8360"
       inkscape:export-filename="C:\Users\Robert\Desktop\ASSETS_2018\smoke_whisp\spritesheet\spritesheet_smoke_whisp.png"
       inkscape:export-xdpi="90"
       inkscape:export-ydpi="90">
      <rect
         y="-247.63791"
         x="-270"
         height="300"
         width="90"
         id="rect8362"
         style="opacity:0;color:#000000;fill:#333333;fill-opacity:1;fill-rule:nonzero;stroke:none;stroke-width:8;marker:none;visibility:visible;display:inline;overflow:visible;enable-background:accumulate" />
      <path
         style="color:#000000;fill:url(#linearGradient8436);fill-opacity:1;stroke:none;stroke-width:8;marker:none;visibility:visible;display:inline;overflow:visible;enable-background:accumulate"
         d="m -250,-247.63782 c 0.0128,40 -10,49.99991 -10,99.99991 0,50.000003 44.98718,54.999998 45,95.000001 0.0128,40 -9.98718,55.0000916 -10,105.000091 0,-49.9999994 30,-65.000092 30,-105.000091 0,-50.000001 -15,-44.999998 -15,-95.000001 0,-50 10,-49.99991 10,-99.99991 z"
         id="path8364"
         inkscape:connector-curvature="0"
         sodipodi:nodetypes="csscsscc" />
    </g>
    <g
       inkscape:export-ydpi="90"
       inkscape:export-xdpi="90"
       inkscape:export-filename="C:\Users\Robert\Desktop\ASSETS_2018\smoke_whisp\spritesheet\spritesheet_smoke_whisp.png"
       id="g8366"
       transform="matrix(2,0,0,2,2150,1057.638)">
      <rect
         style="opacity:0;color:#000000;fill:#333333;fill-opacity:1;fill-rule:nonzero;stroke:none;stroke-width:8;marker:none;visibility:visible;display:inline;overflow:visible;enable-background:accumulate"
         id="rect8368"
         width="90"
         height="300"
         x="-270"
         y="-247.63791" />
      <path
         sodipodi:nodetypes="csscsscc"
         inkscape:connector-curvature="0"
         id="path8370"
         d="m -250,-247.63782 c 0.0128,40 -10,49.99991 -10,99.99991 0,50.000003 39.98718,54.999998 40,95.000001 0.0128,40 -4.98718,55.0000916 -5,105.000091 0,-49.9999994 25,-65.000092 25,-105.000091 0,-50.000001 -10,-44.999998 -10,-95.000001 0,-50 10,-49.99991 10,-99.99991 z"
         style="color:#000000;fill:url(#linearGradient8438);fill-opacity:1;stroke:none;stroke-width:8;marker:none;visibility:visible;display:inline;overflow:visible;enable-background:accumulate" />
    </g>
    <g
       transform="matrix(2,0,0,2,1970,1057.638)"
       id="g8372"
       inkscape:export-filename="C:\Users\Robert\Desktop\ASSETS_2018\smoke_whisp\spritesheet\spritesheet_smoke_whisp.png"
       inkscape:export-xdpi="90"
       inkscape:export-ydpi="90">
      <rect
         y="-247.63791"
         x="-270"
         height="300"
         width="90"
         id="rect8374"
         style="opacity:0;color:#000000;fill:#333333;fill-opacity:1;fill-rule:nonzero;stroke:none;stroke-width:8;marker:none;visibility:visible;display:inline;overflow:visible;enable-background:accumulate" />
      <path
         style="color:#000000;fill:url(#linearGradient8440);fill-opacity:1;stroke:none;stroke-width:8;marker:none;visibility:visible;display:inline;overflow:visible;enable-background:accumulate"
         d="m -250,-247.63782 c 0.0128,40 -5,49.99991 -5,99.99991 0,50.000003 29.98718,54.999998 30,95.000001 0.0128,40 0.0128,55.0000916 0,105.000091 0,-49.9999994 20,-65.000092 20,-105.000091 0,-50.000001 0,-44.999998 0,-95.000001 0,-50 5,-49.99991 5,-99.99991 z"
         id="path8376"
         inkscape:connector-curvature="0"
         sodipodi:nodetypes="csscsscc" />
    </g>
    <g
       inkscape:export-ydpi="90"
       inkscape:export-xdpi="90"
       inkscape:export-filename="C:\Users\Robert\Desktop\ASSETS_2018\smoke_whisp\spritesheet\spritesheet_smoke_whisp.png"
       id="g8378"
       transform="matrix(2,0,0,2,1790,1057.638)">
      <rect
         style="opacity:0;color:#000000;fill:#333333;fill-opacity:1;fill-rule:nonzero;stroke:none;stroke-width:8;marker:none;visibility:visible;display:inline;overflow:visible;enable-background:accumulate"
         id="rect8380"
         width="90"
         height="300"
         x="-270"
         y="-247.63791" />
      <path
         sodipodi:nodetypes="csscsscc"
         inkscape:connector-curvature="0"
         id="path8382"
         d="m -250,-247.63782 c 0.0128,40 -5,49.99991 -5,99.99991 0,50.000003 24.98718,54.999998 25,95.000001 0.0128,40 5.0128,55.0000916 5,105.000091 0,-49.9999994 15,-65.000092 15,-105.000091 0,-50.000001 5,-44.999998 5,-95.000001 0,-50 5,-49.99991 5,-99.99991 z"
         style="color:#000000;fill:url(#linearGradient8442);fill-opacity:1;stroke:none;stroke-width:8;marker:none;visibility:visible;display:inline;overflow:visible;enable-background:accumulate" />
    </g>
    <g
       transform="matrix(2,0,0,2,1610,1057.638)"
       id="g8384"
       inkscape:export-filename="C:\Users\Robert\Desktop\ASSETS_2018\smoke_whisp\spritesheet\spritesheet_smoke_whisp.png"
       inkscape:export-xdpi="90"
       inkscape:export-ydpi="90">
      <rect
         y="-247.63791"
         x="-270"
         height="300"
         width="90"
         id="rect8386"
         style="opacity:0;color:#000000;fill:#333333;fill-opacity:1;fill-rule:nonzero;stroke:none;stroke-width:8;marker:none;visibility:visible;display:inline;overflow:visible;enable-background:accumulate" />
      <path
         style="color:#000000;fill:url(#linearGradient8444);fill-opacity:1;stroke:none;stroke-width:8;marker:none;visibility:visible;display:inline;overflow:visible;enable-background:accumulate"
         d="m -250,-247.63782 c 0.0128,40 0,49.99991 0,99.99991 0,50.000003 14.98718,54.999998 15,95.000001 0.0128,40 10.0128,55.0000916 10,105.000091 0,-49.9999994 10,-65.000092 10,-105.000091 0,-50.000001 15,-44.999998 15,-95.000001 0,-50 0,-49.99991 0,-99.99991 z"
         id="path8388"
         inkscape:connector-curvature="0"
         sodipodi:nodetypes="csscsscc" />
    </g>
    <g
       inkscape:export-ydpi="90"
       inkscape:export-xdpi="90"
       inkscape:export-filename="C:\Users\Robert\Desktop\ASSETS_2018\smoke_whisp\spritesheet\spritesheet_smoke_whisp.png"
       id="g8390"
       transform="matrix(2,0,0,2,1430,1057.638)">
      <rect
         style="opacity:0;color:#000000;fill:#333333;fill-opacity:1;fill-rule:nonzero;stroke:none;stroke-width:8;marker:none;visibility:visible;display:inline;overflow:visible;enable-background:accumulate"
         id="rect8392"
         width="90"
         height="300"
         x="-270"
         y="-247.63791" />
      <path
         sodipodi:nodetypes="csscsscc"
         inkscape:connector-curvature="0"
         id="path8394"
         d="m -250,-247.63782 c 0.0128,40 0,49.99991 0,99.99991 0,50.000003 9.98718,54.999998 10,95.000001 0.0128,40 15.0128,55.0000916 15,105.000091 0,-49.9999994 5,-65.000092 5,-105.000091 0,-50.000001 20,-44.999998 20,-95.000001 0,-50 0,-49.99991 0,-99.99991 z"
         style="color:#000000;fill:url(#linearGradient8446);fill-opacity:1;stroke:none;stroke-width:8;marker:none;visibility:visible;display:inline;overflow:visible;enable-background:accumulate" />
    </g>
    <g
       transform="matrix(2,0,0,2,1250,1057.638)"
       id="g8396"
       inkscape:export-filename="C:\Users\Robert\Desktop\ASSETS_2018\smoke_whisp\spritesheet\spritesheet_smoke_whisp.png"
       inkscape:export-xdpi="90"
       inkscape:export-ydpi="90">
      <rect
         y="-247.63791"
         x="-270"
         height="300"
         width="90"
         id="rect8398"
         style="opacity:0;color:#000000;fill:#333333;fill-opacity:1;fill-rule:nonzero;stroke:none;stroke-width:8;marker:none;visibility:visible;display:inline;overflow:visible;enable-background:accumulate" />
      <path
         style="color:#000000;fill:url(#linearGradient8448);fill-opacity:1;stroke:none;stroke-width:8;marker:none;visibility:visible;display:inline;overflow:visible;enable-background:accumulate"
         d="m -250,-247.63782 c 0.0128,40 5,49.99991 5,99.99991 0,50.000003 -0.0128,54.999998 0,95.000001 0.0128,40 20.0128,55.0000916 20,105.000091 0,-49.9999994 0,-65.000092 0,-105.000091 0,-50.000001 30,-44.999998 30,-95.000001 0,-50 -5,-49.99991 -5,-99.99991 z"
         id="path8400"
         inkscape:connector-curvature="0"
         sodipodi:nodetypes="csscsscc" />
    </g>
    <g
       inkscape:export-ydpi="90"
       inkscape:export-xdpi="90"
       inkscape:export-filename="C:\Users\Robert\Desktop\ASSETS_2018\smoke_whisp\spritesheet\spritesheet_smoke_whisp.png"
       id="g8402"
       transform="matrix(2,0,0,2,1070,1057.638)">
      <rect
         style="opacity:0;color:#000000;fill:#333333;fill-opacity:1;fill-rule:nonzero;stroke:none;stroke-width:8;marker:none;visibility:visible;display:inline;overflow:visible;enable-background:accumulate"
         id="rect8404"
         width="90"
         height="300"
         x="-270"
         y="-247.63791" />
      <path
         sodipodi:nodetypes="csscsscc"
         inkscape:connector-curvature="0"
         id="path8406"
         d="m -250,-247.63782 c 0.0128,40 5,49.99991 5,99.99991 0,50.000003 -5.0128,54.999998 -5,95.000001 0.0128,40 25.0128,55.0000916 25,105.000091 0,-49.9999994 -5,-65.000092 -5,-105.000091 0,-50.000001 35,-44.999998 35,-95.000001 0,-50 -5,-49.99991 -5,-99.99991 z"
         style="color:#000000;fill:url(#linearGradient8450);fill-opacity:1;stroke:none;stroke-width:8;marker:none;visibility:visible;display:inline;overflow:visible;enable-background:accumulate" />
    </g>
    <g
       transform="matrix(2,0,0,2,890,1057.638)"
       id="g8408"
       inkscape:export-filename="C:\Users\Robert\Desktop\ASSETS_2018\smoke_whisp\spritesheet\spritesheet_smoke_whisp.png"
       inkscape:export-xdpi="90"
       inkscape:export-ydpi="90">
      <rect
         y="-247.63791"
         x="-270"
         height="300"
         width="90"
         id="rect8410"
         style="opacity:0;color:#000000;fill:#333333;fill-opacity:1;fill-rule:nonzero;stroke:none;stroke-width:8;marker:none;visibility:visible;display:inline;overflow:visible;enable-background:accumulate" />
      <path
         style="color:#000000;fill:url(#linearGradient8452);fill-opacity:1;stroke:none;stroke-width:8;marker:none;visibility:visible;display:inline;overflow:visible;enable-background:accumulate"
         d="m -250,-247.63782 c 0.0128,40 10,49.99991 10,99.99991 0,50.000003 -15.0128,54.999998 -15,95.000001 0.0128,40 30.0128,55.0000916 30,105.000091 0,-49.9999994 -10,-65.000092 -10,-105.000091 0,-50.000001 45,-44.999998 45,-95.000001 0,-50 -10,-49.99991 -10,-99.99991 z"
         id="path8412"
         inkscape:connector-curvature="0"
         sodipodi:nodetypes="csscsscc" />
    </g>
    <g
       inkscape:export-ydpi="90"
       inkscape:export-xdpi="90"
       inkscape:export-filename="C:\Users\Robert\Desktop\ASSETS_2018\smoke_whisp\spritesheet\spritesheet_smoke_whisp.png"
       id="g8414"
       transform="matrix(2,0,0,2,710,1057.638)">
      <rect
         style="opacity:0;color:#000000;fill:#333333;fill-opacity:1;fill-rule:nonzero;stroke:none;stroke-width:8;marker:none;visibility:visible;display:inline;overflow:visible;enable-background:accumulate"
         id="rect8416"
         width="90"
         height="300"
         x="-270"
         y="-247.63791" />
      <path
         sodipodi:nodetypes="csscsscc"
         inkscape:connector-curvature="0"
         id="path8418"
         d="m -250,-247.63782 c 0.0128,40 10,49.99991 10,99.99991 0,50.000003 -20.0128,54.999998 -20,95.000001 0.0128,40 35.0128,55.0000916 35,105.000091 0,-49.9999994 -15,-65.000092 -15,-105.000091 0,-50.000001 50,-44.999998 50,-95.000001 0,-50 -10,-49.99991 -10,-99.99991 z"
         style="color:#000000;fill:url(#linearGradient8454);fill-opacity:1;stroke:none;stroke-width:8;marker:none;visibility:visible;display:inline;overflow:visible;enable-background:accumulate" />
    </g>
    <g
       transform="matrix(2,0,0,2,530,1057.638)"
       id="g8420"
       inkscape:export-filename="C:\Users\Robert\Desktop\ASSETS_2018\smoke_whisp\spritesheet\spritesheet_smoke_whisp.png"
       inkscape:export-xdpi="90"
       inkscape:export-ydpi="90">
      <rect
         y="-247.63791"
         x="-270"
         height="300"
         width="90"
         id="rect8422"
         style="opacity:0;color:#000000;fill:#333333;fill-opacity:1;fill-rule:nonzero;stroke:none;stroke-width:8;marker:none;visibility:visible;display:inline;overflow:visible;enable-background:accumulate" />
      <path
         style="color:#000000;fill:url(#linearGradient8456);fill-opacity:1;stroke:none;stroke-width:8;marker:none;visibility:visible;display:inline;overflow:visible;enable-background:accumulate"
         d="m -250,-247.63782 c 0.0128,40 15,49.99991 15,99.99991 0,50.000003 -30.0128,54.999998 -30,95.000001 0.0128,40 40.0128,55.0000916 40,105.000091 0,-49.9999994 -20,-65.000092 -20,-105.000091 0,-50.000001 60,-44.999998 60,-95.000001 0,-50 -15,-49.99991 -15,-99.99991 z"
         id="path8424"
         inkscape:connector-curvature="0"
         sodipodi:nodetypes="csscsscc" />
    </g>
  </g>
</svg>
